<?xml version="1.0" encoding="iso-8859-1"?>
<!-- Generator: Adobe Illustrator 19.0.0, SVG Export Plug-In . SVG Version: 6.00 Build 0)  -->
<svg version="1.1" id="Layer_1" xmlns="http://www.w3.org/2000/svg" xmlns:xlink="http://www.w3.org/1999/xlink" x="0px" y="0px"
	 viewBox="0 0 512 512" style="enable-background:new 0 0 512 512;" xml:space="preserve">
<polygon style="fill:#F7A872;" points="406.392,206.742 381.285,214.941 307.373,239.065 228.436,264.813 179.62,280.749 
	158.114,227.845 146.562,199.42 336.994,105.909 359.685,94.772 360.704,94.274 "/>
<path style="fill:#E09461;" d="M406.392,206.742L360.704,94.274l-1.019,0.498l-22.69,11.138l0.001,0.004L146.562,199.42
	l11.553,28.425l174.918-76.83c18.672-8.202,40.005,3.742,42.774,23.946l5.479,39.98L406.392,206.742z"/>
<path style="fill:#E88158;" d="M337.729,470.969h-39.101l-30.724-121.746l-30.724,121.746H198.08l40.902-162.043l5.699-22.596
	c6.623,4.479,14.621,7.097,23.224,7.097c8.602,0,16.6-2.619,23.223-7.097l5.699,22.596L337.729,470.969z"/>
<path style="fill:#5DACD8;" d="M267.904,210.439c22.915,0,41.494,18.579,41.494,41.494c0,14.313-7.251,26.932-18.271,34.385v0.012
	c-6.623,4.479-14.621,7.097-23.224,7.097c-8.602,0-16.6-2.619-23.223-7.097v-0.012c-11.019-7.453-18.271-20.072-18.271-34.385
	C226.41,229.018,244.989,210.439,267.904,210.439z"/>
<path style="fill:#D37250;" d="M296.827,308.926c-1.754,1.718-3.661,3.27-5.699,4.645v0.012c-6.623,4.479-14.621,7.097-23.224,7.097
	s-16.6-2.619-23.224-7.097v-0.012c-2.038-1.374-3.946-2.927-5.699-4.645l5.699-22.596c6.623,4.479,14.621,7.097,23.224,7.097
	s16.6-2.619,23.224-7.097L296.827,308.926z"/>
<polygon style="fill:#F7A872;" points="123.563,282.278 63.182,306.805 63.028,306.425 52.992,281.733 45.172,262.49 
	44.959,261.957 104.866,237.608 105.328,237.418 105.34,237.418 "/>
<polygon style="fill:#E09461;" points="112.899,257.395 52.992,281.733 45.172,262.49 44.959,261.957 104.866,237.608 "/>
<path style="fill:#5DACD8;" d="M63.028,306.425c3.78,9.538-0.829,20.368-10.356,24.231c-9.586,3.898-20.498-0.711-24.397-10.297
	l-17.785-43.781c-0.936-2.31-1.374-4.692-1.374-7.026c0-7.394,4.408-14.396,11.671-17.358c9.574-3.886,20.498,0.723,24.385,10.297
	L63.028,306.425z"/>
<polygon style="fill:#E88158;" points="184.489,292.764 135.85,312.528 123.563,282.278 105.648,238.177 105.34,237.418 
	105.328,237.418 93.041,207.169 141.692,187.405 154.287,218.413 "/>
<polygon style="fill:#D37250;" points="154.287,218.413 105.648,238.177 105.34,237.418 105.328,237.418 93.041,207.169 
	141.692,187.405 "/>
<polygon style="fill:#E88158;" points="494.085,195.024 414.734,227.276 367.528,111.076 352.362,73.74 431.713,41.5 
	437.436,55.576 446.879,78.823 488.374,180.947 "/>
<polygon style="fill:#D37250;" points="446.879,78.823 367.528,111.076 352.362,73.74 431.713,41.5 437.436,55.576 "/>
<path style="fill:#8ED7E0;" d="M497.402,104.251c10.723,26.375,6.363,55.12-9.029,76.697L437.436,55.576
	C463.515,60.304,486.691,77.875,497.402,104.251z"/>
<path d="M498.15,181.741c15.397-24.295,18.164-54.233,7.256-81.067c-10.902-26.846-33.768-46.374-61.746-53.046l-3.944-9.709
	c-1.848-4.546-7.032-6.734-11.577-4.886l-79.351,32.24c-4.546,1.847-6.735,7.031-4.888,11.577l5.223,12.858l-29.731,14.598
	c-4.405,2.164-6.223,7.488-4.061,11.894c2.164,4.405,7.487,6.222,11.894,4.061l28.599-14.043l34.361,84.574l4.154,10.227
	l-82.285,26.861c-8.513-15.798-25.212-26.561-44.381-26.561c-27.781,0-50.381,22.6-50.381,50.381c0,2.34,0.179,4.653,0.495,6.935
	l-33.287,10.866l-9.177-22.578l-17.637-43.417l146.726-72.045c4.405-2.164,6.223-7.488,4.061-11.894
	c-2.164-4.405-7.49-6.224-11.894-4.061l-145.598,71.49l-1.288-3.172c-0.887-2.184-2.606-3.925-4.776-4.841
	c-2.172-0.917-4.619-0.934-6.801-0.047L89.467,198.7c-4.546,1.847-6.736,7.031-4.889,11.577l8.943,22.02l-45.455,18.477
	c-7.564-8.338-19.831-11.522-30.865-7.043C6.753,247.995,0,258.039,0,269.32c0,3.561,0.681,7.048,2.027,10.37l17.786,43.785
	c4.357,10.712,14.71,17.217,25.613,17.216c3.454,0,6.965-0.653,10.355-2.032c10.99-4.456,17.572-15.31,17.19-26.565l45.472-18.471
	l8.942,22.016c0.887,2.184,2.606,3.925,4.776,4.843c1.105,0.467,2.281,0.7,3.456,0.7c1.135,0,2.273-0.218,3.345-0.654l48.639-19.764
	c4.546-1.847,6.735-7.031,4.888-11.577l-1.29-3.175l32.089-10.475c2.82,5.249,6.571,9.999,11.126,14L189.23,468.561
	c-0.671,2.656-0.078,5.474,1.605,7.635c1.684,2.161,4.27,3.425,7.011,3.425h39.101c4.07,0,7.621-2.766,8.616-6.712l22.107-87.602
	l22.107,87.602c0.995,3.947,4.546,6.712,8.616,6.712h39.101c2.741,0,5.327-1.264,7.011-3.425c1.684-2.161,2.276-4.979,1.606-7.635
	l-21.771-86.258c-1.201-4.758-6.032-7.641-10.791-6.442c-4.758,1.201-7.642,6.032-6.442,10.791l18.979,75.197h-20.771
	l-29.029-115.033c-0.995-3.947-4.545-6.712-8.616-6.712s-7.621,2.766-8.616,6.712l-29.029,115.033h-20.771l41.097-162.831
	c5.505,2.014,11.349,3.063,17.319,3.063c5.971,0,11.814-1.049,17.319-3.063l16.072,63.68c1.017,4.029,4.635,6.715,8.61,6.715
	c0.719,0,1.451-0.089,2.181-0.273c4.758-1.201,7.642-6.032,6.442-10.791l-17.368-68.813c10.818-9.505,17.124-23.235,17.124-37.835
	c0-2.35-0.174-4.658-0.487-6.923l83.478-27.251l5.224,12.861c0.887,2.184,2.606,3.925,4.777,4.843
	c1.104,0.467,2.28,0.699,3.456,0.699c1.136,0,2.273-0.218,3.346-0.654l79.351-32.252c4.544-1.847,6.732-7.029,4.888-11.574
	L498.15,181.741z M49.095,322.193c-5.023,2.044-10.773-0.386-12.816-5.409L18.498,273.01c-0.481-1.186-0.724-2.427-0.724-3.689
	c0-4.025,2.41-7.609,6.127-9.125c5.025-2.039,10.77,0.385,12.808,5.405c0,0.001,17.829,43.868,17.829,43.868
	C56.516,314.466,54.079,320.171,49.095,322.193z M67.84,294.996l-11.535-28.384l43.916-17.851l11.535,28.395L67.84,294.996z
	 M140.509,300.717l-36.121-88.891l32.185-13.074l36.109,88.893L140.509,300.717z M249.514,278.789
	c-0.03-0.02-0.056-0.044-0.085-0.064c-8.993-6.083-14.363-16.185-14.363-27.025c0-17.98,14.627-32.608,32.608-32.608
	s32.608,14.627,32.608,32.608c0,10.838-5.37,20.941-14.363,27.025c-0.031,0.021-0.057,0.045-0.088,0.066
	c-5.372,3.608-11.647,5.518-18.157,5.518C261.162,284.309,254.886,282.399,249.514,278.789z M488.94,107.366
	c6.974,17.157,6.961,35.9,0.39,52.663l-36.847-90.685C468.884,76.771,481.969,90.198,488.94,107.366z M419.393,215.465
	l-4.993-12.291c-0.001-0.004-0.002-0.007-0.004-0.011l-4.871-11.987L363.71,78.397l62.888-25.551l53.312,131.212l2.372,5.847
	L419.393,215.465z"/>
<g>
</g>
<g>
</g>
<g>
</g>
<g>
</g>
<g>
</g>
<g>
</g>
<g>
</g>
<g>
</g>
<g>
</g>
<g>
</g>
<g>
</g>
<g>
</g>
<g>
</g>
<g>
</g>
<g>
</g>
</svg>
