<?xml version="1.0" encoding="iso-8859-1"?>
<svg
  version="1.1"
  id="Layer_1"
  xmlns="http://www.w3.org/2000/svg"
  xmlns:xlink="http://www.w3.org/1999/xlink"
  x="0px"
  y="0px"
  viewBox="0 0 506 506"
  style="enable-background: new 0 0 506 506"
  xml:space="preserve"
>
  <defs>
    <linearGradient
      id="circle-gradient"
      x1="-400"
      y1="480"
      x2="480"
      y2="-400"
      gradientUnits="userSpaceOnUse"
    >
      <stop stop-color="#f59b25" />
      <stop offset="0.3" stop-color="#8395fc" />
      <stop offset="1" stop-color="#0d1857" />
    </linearGradient>
  </defs>

  <circle fill="url(#circle-gradient)" cx="253" cy="253" r="253" />
  <g>
    <path
      style="fill: #edf0f2"
      d="M230,198.3l-104.2,29.8c-1-2-2.4-3.8-3.9-5.4c-4.3-4.3-10-6.7-16.1-6.7l0,0
		c-6.1,0-11.8,2.4-16.1,6.7c-4.3,4.3-6.7,10-6.7,16.1s2.4,11.8,6.7,16.1c4.3,4.3,10,6.7,16.1,6.7s11.8-2.4,16.1-6.7
		c4.2-4.1,6.5-9.6,6.7-15.5l104.7-29.9L230,198.3z"
    />
    <path
      style="fill: #edf0f2"
      d="M281.9,384.2l29.8-104.3l-11.2-3.2l-29.9,104.8c-5.8,0.1-11.3,2.4-15.4,6.6
		c-4.3,4.3-6.7,10-6.7,16.1s2.4,11.8,6.7,16.1c4.3,4.3,10,6.7,16.1,6.7s11.8-2.4,16.1-6.7c4.3-4.3,6.7-10,6.7-16.1
		s-2.4-11.8-6.7-16.1C285.7,386.5,283.9,385.2,281.9,384.2z"
    />
    <polygon
      style="fill: #edf0f2"
      points="251.1,250.7 173.8,327.9 182.1,336.1 259.3,258.9 	"
    />
    <polygon
      style="fill: #edf0f2"
      points="191.9,182.3 189.5,170.9 124.3,185.1 126.8,196.5 	"
    />
    <polygon
      style="fill: #edf0f2"
      points="337.8,316.8 323.7,381.9 335.1,384.4 349.2,319.3 	"
    />
  </g>
  <path
    style="fill: #2fb5a0"
    d="M399.3,197.5c0-23.2-9-45-25.4-61.4s-38.2-25.4-61.4-25.4s-45,9-61.4,25.4
	c-5.3,5.3-9.8,11.3-13.5,17.6c13.1-7.7,28.1-11.9,43.7-11.9c23.2,0,45,9,61.4,25.4s25.4,38.2,25.4,61.4c0,15.6-4.2,30.6-11.9,43.7
	c6.3-3.7,12.3-8.2,17.6-13.5C390.2,242.5,399.3,220.7,399.3,197.5z"
  />
  <path
    style="fill: #1ad9ba"
    d="M342.7,167.3c-16.4-16.4-38.2-25.4-61.4-25.4c-15.6,0-30.6,4.2-43.7,11.9
	c-7.7,13.1-11.9,28.1-11.9,43.7c0,23.2,9,45,25.4,61.4s38.2,25.4,61.4,25.4c15.6,0,30.6-4.2,43.7-11.9c7.7-13.1,11.9-28.1,11.9-43.7
	C368.1,205.5,359.1,183.7,342.7,167.3z"
  />
</svg>
