<?xml version="1.0" encoding="iso-8859-1"?>
<!-- Generator: Adobe Illustrator 19.0.0, SVG Export Plug-In . SVG Version: 6.00 Build 0)  -->
<svg version="1.1" id="Layer_1" xmlns="http://www.w3.org/2000/svg" xmlns:xlink="http://www.w3.org/1999/xlink" x="0px" y="0px"
	 viewBox="0 0 241.168 241.168" style="enable-background:new 0 0 241.168 241.168;" xml:space="preserve">
	 <defs>
      <linearGradient id="circle-gradient" x1="-160" y1="200" x2="200" y2="-160" gradientUnits="userSpaceOnUse">
      <stop stop-color="hsl(315deg 88% 57%)"/>
      <stop stop-color="hsl(301deg 88% 61%)" offset="0.11"/>
      <stop stop-color="hsl(286deg 88% 65%)" offset="0.22"/>
      <stop stop-color="hsl(286deg 88% 65%)" offset="0.33"/>
      <stop stop-color="hsl(272deg 87% 70%)" offset="0.44"/>
      <stop stop-color="hsl(258deg 86% 74%)" offset="0.56"/>
      <stop stop-color="hsl(250deg 87% 68%)" offset="0.67"/>
      <stop stop-color="hsl(251deg 87% 51%)" offset="0.78"/>
      <stop stop-color="hsl(251deg 87% 34%)" offset="0.89"/>
      <stop stop-color="hsl(250deg 86% 17%)" offset="1"/>
    </linearGradient>
  </defs>
  
  <circle cx="120" cy="120" r="120" fill="url(#circle-gradient)"/>
<g>
	<g>
		<g id="XMLID_28_">
			<g>
				<rect x="114.406" y="167.755" style="fill:#EAEEEF;" width="27.663" height="2.643"/>
				<path style="fill:#EAEEEF;" d="M128.733,144.086c1.352,0,2.463,1.081,2.463,2.403c0,1.352-1.111,2.433-2.463,2.433
					c-1.382,0-2.493-1.081-2.493-2.433C126.24,145.167,127.351,144.086,128.733,144.086z"/>
				<polygon style="fill:#EAEEEF;" points="45.142,119.997 47.725,124.502 43.73,126.695 41.117,122.219 				"/>
				<polygon style="fill:#EAEEEF;" points="144.262,38.929 169.222,82.061 88.364,121.469 68.059,86.386 				"/>
				<polygon style="fill:#505967;" points="22.945,124.773 32.106,140.632 27.51,143.155 18.349,127.326 				"/>
				<path style="fill:#2D213F;" d="M236.744,17.002c9.281,16.069,3.484,36.554-12.946,45.625l-4.596,2.553l0.33,0.541
					c1.051,1.862,1.292,4.055,0.661,6.067c-0.571,1.892-1.892,3.514-3.664,4.475c-0.12,0.06-0.24,0.12-0.36,0.18l-79.056,38.537
					v15.739c5.857,3.004,9.882,8.891,9.882,15.769c0,2.042-0.421,3.995-1.081,5.797h4.055c4.355,0,7.9,3.484,7.9,7.749v14.898
					l53.855,52.684c3.094,3.004,3.094,7.9,0,10.933c-1.532,1.502-3.574,2.253-5.587,2.253c-2.012,0-4.055-0.751-5.587-2.253
					l-53.855-52.684h-10.062v47.578c0,4.265-3.544,7.719-7.9,7.719c-4.385,0-7.9-3.454-7.9-7.719v-47.578H109.78l-52.654,51.452
					c-1.532,1.532-3.544,2.283-5.587,2.283c-2.012,0-4.025-0.751-5.587-2.283c-3.064-3.004-3.064-7.9,0-10.903l52.654-51.482
					v-14.898c0-4.265,3.514-7.749,7.9-7.749h5.016c-0.661-1.802-1.081-3.755-1.081-5.797c0-7.269,4.475-13.516,10.873-16.28v-7.539
					l-51.512,25.11c-3.755,1.832-8.35,0.481-10.393-3.124l-3.905-6.728l-5.346,2.974c0.901,3.214-0.601,6.788-3.845,8.59
					l-18.352,10.152c-3.785,2.103-8.53,0.961-10.543-2.523l-16.49-28.535c-2.042-3.484-0.601-8.05,3.214-10.152l18.322-10.122
					c3.274-1.802,7.209-1.231,9.552,1.201l5.346-2.974l-4.535-7.837c-2.073-3.574-0.931-8.11,2.613-10.333L173.397,2.465
					c1.832-1.111,4.055-1.472,6.157-0.961c2.103,0.511,3.905,1.832,4.956,3.694l0.991,1.682l4.566-2.553
					C206.527-4.744,227.432,0.933,236.744,17.002z M216.018,49.171c8.831-4.896,11.954-15.919,6.968-24.57
					c-5.016-8.65-16.28-11.714-25.14-6.818l-4.566,2.553l18.142,31.388L216.018,49.171z M201.661,66.262l-26.792-46.376
					l-17.241,10.753l25.741,44.544L201.661,66.262z M169.222,82.061l-24.96-43.132L68.059,86.386l20.305,35.082L169.222,82.061z
					 M142.069,170.398v-2.643h-27.663v2.643H142.069z M131.196,146.489c0-1.322-1.111-2.403-2.463-2.403
					c-1.382,0-2.493,1.081-2.493,2.403c0,1.352,1.111,2.433,2.493,2.433C130.084,148.922,131.196,147.84,131.196,146.489z
					 M74.187,128.377L54.723,94.706l-4.445,2.763l19.193,33.22L74.187,128.377z M47.725,124.502l-2.583-4.505l-4.025,2.223
					l2.613,4.475L47.725,124.502z M32.106,140.632l-9.161-15.859l-4.596,2.553l9.161,15.829L32.106,140.632z"/>
				<path style="fill:#FEDE94;" d="M222.987,24.601c4.986,8.65,1.862,19.674-6.968,24.57l-4.596,2.553l-18.142-31.388l4.566-2.553
					C206.707,12.887,217.971,15.951,222.987,24.601z"/>
				<polygon style="fill:#505967;" points="174.869,19.886 201.661,66.262 183.369,75.183 157.628,30.639 				"/>
				<polygon style="fill:#505967;" points="54.723,94.706 74.187,128.377 69.471,130.69 50.278,97.47 				"/>
			</g>
		</g>
		<polygon style="fill:#454D5B;" points="183.369,75.183 201.661,66.262 192.857,51.024 175.304,61.228 		"/>
		<polygon style="fill:#C5CBCF;" points="88.364,121.469 169.222,82.061 161.731,69.118 84.159,114.203 		"/>
		<polygon style="fill:#454D5B;" points="69.471,130.69 74.187,128.377 70.561,122.105 66.032,124.74 		"/>
		<polygon style="fill:#454D5B;" points="174.869,19.886 157.628,30.639 165.305,43.927 182.981,33.928 		"/>
		<polygon style="fill:#C5CBCF;" points="144.262,38.929 68.059,86.386 73.535,95.848 151.63,51.664 		"/>
		<polygon style="fill:#454D5B;" points="54.723,94.706 50.278,97.47 55.3,106.165 59.856,103.588 		"/>
		<path style="fill:#F2CE75;" d="M216.018,49.171c8.831-4.896,11.954-15.919,6.968-24.57c-1.114-1.922-2.55-3.55-4.187-4.893
			c3.664,8.641,2.454,21.996-6.845,31.721L216.018,49.171z"/>
	</g>
</g>
</svg>
